# This file uses centimeters as units for non-parametric coordinates.

mtllib finger.mtl
g default
v -2.298267 1.673619 -0.174670
v -2.380314 1.673619 -0.335694
v -2.508104 1.673619 -0.463484
v -2.669129 1.673619 -0.545530
v -2.847626 1.673619 -0.573802
v -3.026123 1.673619 -0.545530
v -3.187148 1.673619 -0.463484
v -3.314938 1.673619 -0.335694
v -3.396984 1.673619 -0.174669
v -3.425255 1.673619 0.003828
v -3.396984 1.673619 0.182325
v -3.314938 1.673619 0.343350
v -3.187148 1.673619 0.471140
v -3.026123 1.673619 0.553186
v -2.847626 1.673619 0.581457
v -2.669129 1.673619 0.553186
v -2.508104 1.673619 0.471140
v -2.380314 1.673619 0.343350
v -2.298268 1.673619 0.182325
v -2.269997 1.673619 0.003828
v -2.298267 2.598853 -0.174670
v -2.380314 2.598853 -0.335694
v -2.508104 2.598853 -0.463484
v -2.669129 2.598853 -0.545530
v -2.847626 2.598853 -0.573802
v -3.026123 2.598853 -0.545530
v -3.187148 2.598853 -0.463484
v -3.314938 2.598853 -0.335694
v -3.396984 2.598853 -0.174669
v -3.425255 2.598853 0.003828
v -3.396984 2.598853 0.182325
v -3.314938 2.598853 0.343350
v -3.187148 2.598853 0.471140
v -3.026123 2.598853 0.553186
v -2.847626 2.598853 0.581457
v -2.669129 2.598853 0.553186
v -2.508104 2.598853 0.471140
v -2.380314 2.598853 0.343350
v -2.298268 2.598853 0.182325
v -2.269997 2.598853 0.003828
v -2.847626 1.673619 0.003828
v -2.847626 2.598853 0.003828
v -6.467195 0.476684 0.406382
v -6.211245 0.476684 0.406382
v -6.467195 1.766331 0.406382
v -6.211245 1.766331 0.406382
v -6.467195 1.766331 0.150431
v -6.211245 1.766331 0.150431
v -6.467195 0.476684 0.150431
v -6.211245 0.476684 0.150431
v -6.467195 0.476684 -0.127231
v -6.211245 0.476684 -0.127231
v -6.467195 1.766331 -0.127231
v -6.211245 1.766331 -0.127231
v -6.467195 1.766331 -0.383181
v -6.211245 1.766331 -0.383181
v -6.467195 0.476684 -0.383181
v -6.211245 0.476684 -0.383181
v -8.585931 1.621222 0.500000
v -3.097910 1.621222 0.500000
v -8.585931 2.621222 0.500000
v -3.097910 2.621222 0.500000
v -8.585931 2.621222 -0.500000
v -3.097910 2.621222 -0.500000
v -8.585931 1.621222 -0.500000
v -3.097910 1.621222 -0.500000
v -2.583837 1.621222 0.499997
v 2.904156 1.621222 0.517316
v -2.583837 2.621222 0.499997
v 2.904156 2.621222 0.517316
v -2.580681 2.621222 -0.499998
v 2.907312 2.621222 -0.482679
v -2.580681 1.621222 -0.499998
v 2.907312 1.621222 -0.482679
v 0.469766 0.476684 0.406382
v 0.725716 0.476684 0.406382
v 0.469766 1.766331 0.406382
v 0.725716 1.766331 0.406382
v 0.469766 1.766331 0.150431
v 0.725716 1.766331 0.150431
v 0.469766 0.476684 0.150431
v 0.725716 0.476684 0.150431
v 0.469766 0.476684 -0.127231
v 0.725716 0.476684 -0.127231
v 0.469766 1.766331 -0.127231
v 0.725716 1.766331 -0.127231
v 0.469766 1.766331 -0.383181
v 0.725716 1.766331 -0.383181
v 0.469766 0.476684 -0.383181
v 0.725716 0.476684 -0.383181
vt 0.364692 0.813904
vt 0.364692 0.795580
vt 0.469982 0.795580
vt 0.469982 0.813904
vt 0.364692 0.781038
vt 0.469982 0.781038
vt 0.364692 0.834217
vt 0.469982 0.834217
vt 0.364692 0.854529
vt 0.469982 0.854529
vt 0.364692 0.872854
vt 0.469982 0.872854
vt 0.364692 0.887396
vt 0.469982 0.887396
vt 0.477731 0.872854
vt 0.477731 0.854529
vt 0.583021 0.854529
vt 0.583021 0.872854
vt 0.477731 0.834217
vt 0.583021 0.834217
vt 0.477731 0.887396
vt 0.583021 0.887396
vt 0.477731 0.813904
vt 0.583021 0.813904
vt 0.477731 0.795580
vt 0.583021 0.795580
vt 0.477731 0.781038
vt 0.583021 0.781038
vt 0.898358 0.630284
vt 0.927484 0.630284
vt 0.927484 0.777043
vt 0.898358 0.777043
vt 0.863096 0.630284
vt 0.892223 0.630284
vt 0.892223 0.777043
vt 0.863096 0.777043
vt 0.757310 0.630284
vt 0.786437 0.630284
vt 0.786437 0.777043
vt 0.757310 0.777043
vt 0.722049 0.630287
vt 0.751175 0.630287
vt 0.751175 0.777046
vt 0.722049 0.777046
vt 0.044819 0.630643
vt 0.158616 0.630643
vt 0.158616 0.744441
vt 0.044819 0.744441
vt 0.001992 0.748432
vt 0.115790 0.748432
vt 0.115790 0.862230
vt 0.001992 0.862230
vt 0.123022 0.766100
vt 0.236819 0.766100
vt 0.236819 0.879898
vt 0.123022 0.879898
vt 0.243857 0.766100
vt 0.357654 0.766100
vt 0.357654 0.879898
vt 0.243857 0.879898
vt 0.616263 0.630287
vt 0.645390 0.630287
vt 0.645390 0.777046
vt 0.616263 0.777046
vt 0.581001 0.630287
vt 0.610128 0.630287
vt 0.610128 0.777046
vt 0.581001 0.777046
vt 0.475216 0.630287
vt 0.504342 0.630287
vt 0.504342 0.777046
vt 0.475216 0.777046
vt 0.439954 0.630287
vt 0.469080 0.630287
vt 0.469080 0.777046
vt 0.439954 0.777046
vt 0.421265 0.657383
vt 0.430601 0.675707
vt 0.368086 0.696020
vt 0.433819 0.696020
vt 0.406723 0.642841
vt 0.430601 0.716332
vt 0.388398 0.633504
vt 0.421265 0.734657
vt 0.368086 0.630287
vt 0.406723 0.749199
vt 0.347773 0.633504
vt 0.388398 0.758536
vt 0.329449 0.642841
vt 0.368086 0.761753
vt 0.314907 0.657383
vt 0.347773 0.758536
vt 0.305570 0.675707
vt 0.329449 0.749199
vt 0.302353 0.696020
vt 0.314907 0.734657
vt 0.305570 0.716332
vt 0.293000 0.716689
vt 0.283664 0.735013
vt 0.230485 0.696376
vt 0.269121 0.749555
vt 0.296218 0.696376
vt 0.250797 0.758892
vt 0.293000 0.676063
vt 0.230485 0.762109
vt 0.283664 0.657739
vt 0.210172 0.758892
vt 0.269121 0.643197
vt 0.191848 0.749555
vt 0.250797 0.633860
vt 0.177306 0.735013
vt 0.230485 0.630643
vt 0.167969 0.716689
vt 0.210172 0.633860
vt 0.164752 0.696376
vt 0.191848 0.643197
vt 0.167969 0.676063
vt 0.177306 0.657739
vt 0.758380 0.781035
vt 0.787507 0.781035
vt 0.787507 0.810161
vt 0.758380 0.810161
vt 0.795411 0.781035
vt 0.824537 0.781035
vt 0.824537 0.810161
vt 0.795411 0.810161
vt 0.832441 0.781034
vt 0.861567 0.781034
vt 0.861567 0.810161
vt 0.832441 0.810161
vt 0.869471 0.781034
vt 0.898597 0.781034
vt 0.898597 0.810161
vt 0.869471 0.810161
vt 0.368590 0.626296
vt 0.368590 0.001771
vt 0.482388 0.001771
vt 0.482388 0.626296
vt 0.610260 0.626296
vt 0.610260 0.001771
vt 0.724058 0.001771
vt 0.724058 0.626296
vt 0.003963 0.626652
vt 0.001992 0.002130
vt 0.115789 0.001771
vt 0.117760 0.626293
vt 0.124971 0.626292
vt 0.126942 0.001771
vt 0.240739 0.002130
vt 0.238768 0.626652
vt 0.906501 0.781034
vt 0.935627 0.781034
vt 0.935627 0.810161
vt 0.906501 0.810161
vt 0.943531 0.781034
vt 0.972657 0.781034
vt 0.972657 0.810161
vt 0.943531 0.810161
vt 0.968882 0.814152
vt 0.998008 0.814152
vt 0.998008 0.843279
vt 0.968882 0.843279
vt 0.933620 0.814153
vt 0.962746 0.814153
vt 0.962746 0.843279
vt 0.933620 0.843279
vt 0.668044 0.886327
vt 0.649720 0.886327
vt 0.649720 0.781037
vt 0.668044 0.781037
vt 0.629407 0.886327
vt 0.629407 0.781037
vt 0.609095 0.886327
vt 0.609095 0.781037
vt 0.590771 0.886327
vt 0.590771 0.781037
vt 0.674576 0.781037
vt 0.692900 0.781037
vt 0.692900 0.886327
vt 0.674576 0.886327
vt 0.713212 0.781037
vt 0.713212 0.886327
vt 0.733525 0.781037
vt 0.733525 0.886327
vt 0.751849 0.781037
vt 0.751849 0.886327
vt 0.968881 0.630284
vt 0.998008 0.630284
vt 0.998008 0.777043
vt 0.968881 0.777043
vt 0.933620 0.630284
vt 0.962746 0.630284
vt 0.962746 0.777043
vt 0.933620 0.777043
vt 0.827834 0.630284
vt 0.856961 0.630284
vt 0.856961 0.777043
vt 0.827834 0.777043
vt 0.792572 0.630284
vt 0.821699 0.630284
vt 0.821699 0.777043
vt 0.792572 0.777043
vt 0.247755 0.626296
vt 0.247755 0.001771
vt 0.361553 0.001771
vt 0.361553 0.626296
vt 0.489425 0.626296
vt 0.489425 0.001771
vt 0.603223 0.001771
vt 0.603223 0.626296
vt 0.731095 0.626293
vt 0.731095 0.001771
vt 0.844893 0.001771
vt 0.844893 0.626293
vt 0.851930 0.626292
vt 0.851930 0.001771
vt 0.965728 0.001771
vt 0.965728 0.626292
vt 0.686787 0.630287
vt 0.715913 0.630287
vt 0.715913 0.777046
vt 0.686787 0.777046
vt 0.651525 0.630287
vt 0.680651 0.630287
vt 0.680651 0.777046
vt 0.651525 0.777046
vt 0.545739 0.630287
vt 0.574866 0.630287
vt 0.574866 0.777046
vt 0.545739 0.777046
vt 0.510478 0.630287
vt 0.539604 0.630287
vt 0.539604 0.777046
vt 0.510478 0.777046
vn 0.951057 0.000000 -0.309016
vn 0.809017 0.000000 -0.587786
vn 0.809017 0.000000 -0.587786
vn 0.951057 0.000000 -0.309016
vn 0.587785 0.000000 -0.809017
vn 0.587785 0.000000 -0.809017
vn 0.309017 0.000000 -0.951057
vn 0.309017 0.000000 -0.951057
vn 0.000000 0.000000 -1.000000
vn 0.000000 0.000000 -1.000000
vn -0.309018 0.000000 -0.951056
vn -0.309018 0.000000 -0.951056
vn -0.587785 0.000000 -0.809017
vn -0.587785 0.000000 -0.809017
vn -0.809017 0.000000 -0.587786
vn -0.809017 0.000000 -0.587786
vn -0.951057 0.000000 -0.309017
vn -0.951057 0.000000 -0.309017
vn -1.000000 0.000000 0.000000
vn -1.000000 0.000000 0.000000
vn -0.951057 0.000000 0.309017
vn -0.951057 0.000000 0.309017
vn -0.809017 0.000000 0.587786
vn -0.809017 0.000000 0.587786
vn -0.587785 0.000000 0.809017
vn -0.587785 0.000000 0.809017
vn -0.309017 0.000000 0.951056
vn -0.309017 0.000000 0.951056
vn 0.000000 0.000000 1.000000
vn 0.000000 0.000000 1.000000
vn 0.309017 0.000000 0.951056
vn 0.309017 0.000000 0.951056
vn 0.587785 0.000000 0.809017
vn 0.587785 0.000000 0.809017
vn 0.809017 0.000000 0.587786
vn 0.809017 0.000000 0.587786
vn 0.951057 0.000000 0.309016
vn 0.951057 0.000000 0.309016
vn 1.000000 0.000000 0.000001
vn 1.000000 0.000000 0.000001
vn 0.000000 -1.000000 0.000001
vn 0.000000 -1.000000 0.000001
vn 0.000000 -1.000000 0.000000
vn 0.000000 -1.000000 -0.000000
vn 0.000000 -1.000000 -0.000000
vn 0.000000 -1.000000 0.000000
vn 0.000000 -1.000000 0.000001
vn 0.000000 -1.000000 0.000001
vn 0.000000 -1.000000 -0.000001
vn 0.000000 -1.000000 -0.000000
vn 0.000000 -1.000000 0.000000
vn 0.000000 -1.000000 0.000000
vn 0.000000 -1.000000 0.000001
vn 0.000000 -1.000000 -0.000000
vn 0.000000 -1.000000 -0.000000
vn 0.000000 -1.000000 0.000000
vn 0.000000 -1.000000 0.000000
vn 0.000000 -1.000000 0.000001
vn 0.000000 -1.000000 0.000001
vn 0.000000 -1.000000 -0.000001
vn 0.000000 -1.000000 -0.000001
vn 0.000000 1.000000 0.000000
vn 0.000000 1.000000 0.000000
vn 0.000000 1.000000 0.000000
vn 0.000000 1.000000 0.000000
vn 0.000000 1.000000 0.000000
vn 0.000000 1.000000 0.000000
vn 0.000000 1.000000 0.000000
vn 0.000000 1.000000 0.000000
vn 0.000000 1.000000 -0.000001
vn 0.000000 1.000000 -0.000000
vn 0.000000 1.000000 0.000001
vn 0.000000 1.000000 0.000001
vn 0.000000 1.000000 0.000001
vn 0.000000 1.000000 0.000000
vn 0.000000 1.000000 0.000000
vn 0.000000 1.000000 0.000000
vn 0.000000 1.000000 0.000000
vn 0.000000 1.000000 -0.000000
vn 0.000000 1.000000 0.000001
vn 0.000000 1.000000 0.000000
vn 0.000000 1.000000 -0.000001
vn 0.000000 0.000000 1.000000
vn 0.000000 0.000000 1.000000
vn 0.000000 0.000000 1.000000
vn 0.000000 0.000000 1.000000
vn 0.000000 1.000000 0.000000
vn 0.000000 1.000000 0.000000
vn 0.000000 1.000000 0.000000
vn 0.000000 1.000000 0.000000
vn 0.000000 0.000000 -1.000000
vn 0.000000 0.000000 -1.000000
vn 0.000000 0.000000 -1.000000
vn 0.000000 0.000000 -1.000000
vn 0.000000 -1.000000 0.000000
vn 0.000000 -1.000000 0.000000
vn 0.000000 -1.000000 0.000000
vn 0.000000 -1.000000 0.000000
vn 1.000000 0.000000 0.000000
vn 1.000000 0.000000 0.000000
vn 1.000000 0.000000 0.000000
vn 1.000000 0.000000 0.000000
vn -1.000000 0.000000 0.000000
vn -1.000000 0.000000 0.000000
vn -1.000000 0.000000 0.000000
vn -1.000000 0.000000 0.000000
vn 0.000000 0.000000 1.000000
vn 0.000000 0.000000 1.000000
vn 0.000000 0.000000 1.000000
vn 0.000000 0.000000 1.000000
vn 0.000000 1.000000 0.000000
vn 0.000000 1.000000 0.000000
vn 0.000000 1.000000 0.000000
vn 0.000000 1.000000 0.000000
vn 0.000000 0.000000 -1.000000
vn 0.000000 0.000000 -1.000000
vn 0.000000 0.000000 -1.000000
vn 0.000000 0.000000 -1.000000
vn 0.000000 -1.000000 0.000000
vn 0.000000 -1.000000 0.000000
vn 0.000000 -1.000000 0.000000
vn 0.000000 -1.000000 0.000000
vn 1.000000 0.000000 0.000000
vn 1.000000 0.000000 0.000000
vn 1.000000 0.000000 0.000000
vn 1.000000 0.000000 0.000000
vn -1.000000 0.000000 0.000000
vn -1.000000 0.000000 0.000000
vn -1.000000 0.000000 0.000000
vn -1.000000 0.000000 0.000000
vn 0.000000 0.000000 1.000000
vn 0.000000 0.000000 1.000000
vn 0.000000 0.000000 1.000000
vn 0.000000 0.000000 1.000000
vn 0.000000 1.000000 0.000000
vn 0.000000 1.000000 0.000000
vn 0.000000 1.000000 0.000000
vn 0.000000 1.000000 0.000000
vn 0.000000 0.000000 -1.000000
vn 0.000000 0.000000 -1.000000
vn 0.000000 0.000000 -1.000000
vn 0.000000 0.000000 -1.000000
vn 0.000000 -1.000000 0.000000
vn 0.000000 -1.000000 0.000000
vn 0.000000 -1.000000 0.000000
vn 0.000000 -1.000000 0.000000
vn 1.000000 0.000000 0.000000
vn 1.000000 0.000000 0.000000
vn 1.000000 0.000000 0.000000
vn 1.000000 0.000000 0.000000
vn -1.000000 0.000000 0.000000
vn -1.000000 0.000000 0.000000
vn -1.000000 0.000000 0.000000
vn -1.000000 0.000000 0.000000
vn -0.003156 0.000000 0.999995
vn -0.003156 0.000000 0.999995
vn -0.003156 0.000000 0.999995
vn -0.003156 0.000000 0.999995
vn 0.000000 1.000000 -0.000000
vn 0.000000 1.000000 -0.000000
vn 0.000000 1.000000 -0.000000
vn 0.000000 1.000000 -0.000000
vn 0.003156 0.000000 -0.999995
vn 0.003156 0.000000 -0.999995
vn 0.003156 0.000000 -0.999995
vn 0.003156 0.000000 -0.999995
vn 0.000000 -1.000000 0.000000
vn 0.000000 -1.000000 0.000000
vn 0.000000 -1.000000 0.000000
vn 0.000000 -1.000000 0.000000
vn 0.999995 0.000000 0.003156
vn 0.999995 0.000000 0.003156
vn 0.999995 0.000000 0.003156
vn 0.999995 0.000000 0.003156
vn -0.999995 0.000000 -0.003156
vn -0.999995 0.000000 -0.003156
vn -0.999995 0.000000 -0.003156
vn -0.999995 0.000000 -0.003156
vn 0.000000 0.000000 1.000000
vn 0.000000 0.000000 1.000000
vn 0.000000 0.000000 1.000000
vn 0.000000 0.000000 1.000000
vn 0.000000 1.000000 0.000000
vn 0.000000 1.000000 0.000000
vn 0.000000 1.000000 0.000000
vn 0.000000 1.000000 0.000000
vn 0.000000 0.000000 -1.000000
vn 0.000000 0.000000 -1.000000
vn 0.000000 0.000000 -1.000000
vn 0.000000 0.000000 -1.000000
vn 0.000000 -1.000000 0.000000
vn 0.000000 -1.000000 0.000000
vn 0.000000 -1.000000 0.000000
vn 0.000000 -1.000000 0.000000
vn 1.000000 0.000000 0.000000
vn 1.000000 0.000000 0.000000
vn 1.000000 0.000000 0.000000
vn 1.000000 0.000000 0.000000
vn -1.000000 0.000000 0.000000
vn -1.000000 0.000000 0.000000
vn -1.000000 0.000000 0.000000
vn -1.000000 0.000000 0.000000
vn 0.000000 0.000000 1.000000
vn 0.000000 0.000000 1.000000
vn 0.000000 0.000000 1.000000
vn 0.000000 0.000000 1.000000
vn 0.000000 1.000000 0.000000
vn 0.000000 1.000000 0.000000
vn 0.000000 1.000000 0.000000
vn 0.000000 1.000000 0.000000
vn 0.000000 0.000000 -1.000000
vn 0.000000 0.000000 -1.000000
vn 0.000000 0.000000 -1.000000
vn 0.000000 0.000000 -1.000000
vn 0.000000 -1.000000 0.000000
vn 0.000000 -1.000000 0.000000
vn 0.000000 -1.000000 0.000000
vn 0.000000 -1.000000 0.000000
vn 1.000000 0.000000 0.000000
vn 1.000000 0.000000 0.000000
vn 1.000000 0.000000 0.000000
vn 1.000000 0.000000 0.000000
vn -1.000000 0.000000 0.000000
vn -1.000000 0.000000 0.000000
vn -1.000000 0.000000 0.000000
vn -1.000000 0.000000 0.000000
s 1
g pCylinder2
usemtl initialShadingGroup
f 1/1/1 2/2/2 22/3/3 21/4/4
f 2/2/2 3/5/5 23/6/6 22/3/3
f 3/167/5 4/168/7 24/169/8 23/170/6
f 4/168/7 5/171/9 25/172/10 24/169/8
f 5/171/9 6/173/11 26/174/12 25/172/10
f 6/173/11 7/175/13 27/176/14 26/174/12
f 7/21/13 8/15/15 28/18/16 27/22/14
f 8/15/15 9/16/17 29/17/18 28/18/16
f 9/16/17 10/19/19 30/20/20 29/17/18
f 10/19/19 11/23/21 31/24/22 30/20/20
f 11/23/21 12/25/23 32/26/24 31/24/22
f 12/25/23 13/27/25 33/28/26 32/26/24
f 13/177/25 14/178/27 34/179/28 33/180/26
f 14/178/27 15/181/29 35/182/30 34/179/28
f 15/181/29 16/183/31 36/184/32 35/182/30
f 16/183/31 17/185/33 37/186/34 36/184/32
f 17/13/33 18/11/35 38/12/36 37/14/34
f 18/11/35 19/9/37 39/10/38 38/12/36
f 19/9/37 20/7/39 40/8/40 39/10/38
f 20/7/39 1/1/1 21/4/4 40/8/40
s 2
f 2/77/41 1/78/42 41/79/43
f 3/81/44 2/77/41 41/79/43
f 4/83/45 3/81/44 41/79/43
f 5/85/46 4/83/45 41/79/43
f 6/87/47 5/85/46 41/79/43
f 7/89/48 6/87/47 41/79/43
f 8/91/49 7/89/48 41/79/43
f 9/93/50 8/91/49 41/79/43
f 10/95/51 9/93/50 41/79/43
f 11/97/52 10/95/51 41/79/43
f 12/96/53 11/97/52 41/79/43
f 13/94/54 12/96/53 41/79/43
f 14/92/55 13/94/54 41/79/43
f 15/90/56 14/92/55 41/79/43
f 16/88/57 15/90/56 41/79/43
f 17/86/58 16/88/57 41/79/43
f 18/84/59 17/86/58 41/79/43
f 19/82/60 18/84/59 41/79/43
f 20/80/61 19/82/60 41/79/43
f 1/78/42 20/80/61 41/79/43
s 3
f 21/98/62 22/99/63 42/100/64
f 22/99/63 23/101/65 42/100/64
f 23/101/65 24/103/66 42/100/64
f 24/103/66 25/105/67 42/100/64
f 25/105/67 26/107/68 42/100/64
f 26/107/68 27/109/69 42/100/64
f 27/109/69 28/111/70 42/100/64
f 28/111/70 29/113/71 42/100/64
f 29/113/71 30/115/72 42/100/64
f 30/115/72 31/117/73 42/100/64
f 31/117/73 32/118/74 42/100/64
f 32/118/74 33/116/75 42/100/64
f 33/116/75 34/114/76 42/100/64
f 34/114/76 35/112/77 42/100/64
f 35/112/77 36/110/78 42/100/64
f 36/110/78 37/108/79 42/100/64
f 37/108/79 38/106/80 42/100/64
f 38/106/80 39/104/81 42/100/64
f 39/104/81 40/102/82 42/100/64
f 40/102/82 21/98/62 42/100/64
s off
f 43/187/83 44/188/84 46/189/85 45/190/86
f 45/119/87 46/120/88 48/121/89 47/122/90
f 47/191/91 48/192/92 50/193/93 49/194/94
f 49/123/95 50/124/96 44/125/97 43/126/98
f 44/29/99 50/30/100 48/31/101 46/32/102
f 49/33/103 43/34/104 45/35/105 47/36/106
f 51/195/107 52/196/108 54/197/109 53/198/110
f 53/127/111 54/128/112 56/129/113 55/130/114
f 55/199/115 56/200/116 58/201/117 57/202/118
f 57/131/119 58/132/120 52/133/121 51/134/122
f 52/37/123 58/38/124 56/39/125 54/40/126
f 57/41/127 51/42/128 53/43/129 55/44/130
f 59/203/131 60/204/132 62/205/133 61/206/134
f 61/135/135 62/136/136 64/137/137 63/138/138
f 63/207/139 64/208/140 66/209/141 65/210/142
f 65/139/143 66/140/144 60/141/145 59/142/146
f 60/45/147 66/46/148 64/47/149 62/48/150
f 65/49/151 59/50/152 61/51/153 63/52/154
f 67/211/155 68/212/156 70/213/157 69/214/158
f 69/143/159 70/144/160 72/145/161 71/146/162
f 71/215/163 72/216/164 74/217/165 73/218/166
f 73/147/167 74/148/168 68/149/169 67/150/170
f 68/53/171 74/54/172 72/55/173 70/56/174
f 73/57/175 67/58/176 69/59/177 71/60/178
f 75/219/179 76/220/180 78/221/181 77/222/182
f 77/151/183 78/152/184 80/153/185 79/154/186
f 79/223/187 80/224/188 82/225/189 81/226/190
f 81/155/191 82/156/192 76/157/193 75/158/194
f 76/61/195 82/62/196 80/63/197 78/64/198
f 81/65/199 75/66/200 77/67/201 79/68/202
f 83/227/203 84/228/204 86/229/205 85/230/206
f 85/159/207 86/160/208 88/161/209 87/162/210
f 87/231/211 88/232/212 90/233/213 89/234/214
f 89/163/215 90/164/216 84/165/217 83/166/218
f 84/69/219 90/70/220 88/71/221 86/72/222
f 89/73/223 83/74/224 85/75/225 87/76/226
